<svg xmlns="http://www.w3.org/2000/svg" id="Camada_2" data-name="Camada 2" viewBox="0 0 338.44 78.2"><defs><style> .cls-1 { fill: #263570; } .cls-1, .cls-2, .cls-3, .cls-4, .cls-5 { stroke-width: 0px; } .cls-2 { fill: #1396d4; } .cls-3 { opacity: .51; } .cls-3, .cls-5 { fill: #2eb196; } .cls-4 { fill: #008f9d; } </style></defs><g id="Camada_1-2" data-name="Camada 1"><g><g><path class="cls-1" d="M145.93,40.04c0,1.99-.31,3.82-.94,5.51-.62,1.7-1.51,3.16-2.66,4.4-1.15,1.23-2.53,2.2-4.15,2.89-1.62.7-3.41,1.04-5.38,1.04s-3.77-.34-5.38-1.04c-1.62-.7-3-1.66-4.16-2.89-1.15-1.24-2.05-2.7-2.68-4.4-.64-1.69-.95-3.53-.95-5.51s.31-3.8.95-5.49c.63-1.7,1.52-3.16,2.68-4.38,1.15-1.23,2.54-2.2,4.16-2.9,1.62-.7,3.42-1.04,5.38-1.04s3.77.35,5.38,1.04c1.62.7,3,1.67,4.15,2.91,1.15,1.23,2.04,2.7,2.66,4.38.62,1.68.94,3.51.94,5.48ZM140.46,40.04c0-1.44-.17-2.73-.53-3.87-.36-1.14-.86-2.11-1.52-2.92-.66-.8-1.47-1.41-2.41-1.84s-2.02-.65-3.21-.65-2.27.22-3.22.65c-.95.43-1.76,1.04-2.42,1.84-.66.81-1.16,1.78-1.52,2.92-.36,1.15-.53,2.44-.53,3.87s.17,2.76.53,3.9c.36,1.15.86,2.13,1.52,2.92.66.8,1.47,1.41,2.42,1.83s2.02.63,3.22.63,2.27-.21,3.21-.63,1.75-1.03,2.41-1.83c.65-.79,1.16-1.76,1.52-2.92.36-1.15.53-2.44.53-3.9Z"></path><path class="cls-1" d="M162.2,35.47c0,.38-.07.74-.19,1.08-.12.33-.27.62-.44.86l-7.85,12.23h8.29v3.95h-14.21v-2.14c0-.23.05-.52.16-.86s.28-.65.51-.92l7.83-12.37h-8.01v-3.96h13.91v2.13Z"></path><path class="cls-1" d="M173.5,33.02c1.28,0,2.45.21,3.53.62s2,1.02,2.77,1.79c.78.78,1.38,1.75,1.81,2.89s.65,2.44.65,3.92c0,.39-.02.71-.06.96-.04.25-.11.45-.2.6s-.21.25-.37.32c-.15.06-.35.09-.58.09h-12.11c.08.98.26,1.83.53,2.55.28.72.63,1.31,1.08,1.77s.98.81,1.59,1.03c.62.22,1.29.33,2.04.33s1.4-.09,1.95-.28c.55-.18,1.03-.38,1.44-.59s.78-.41,1.11-.59c.33-.18.65-.28.96-.28.38,0,.7.16.94.47l1.49,1.92c-.56.65-1.18,1.2-1.86,1.63s-1.38.77-2.11,1.02c-.73.25-1.47.44-2.21.54s-1.47.16-2.16.16c-1.39,0-2.7-.23-3.91-.69-1.21-.46-2.26-1.15-3.16-2.07-.89-.91-1.6-2.05-2.11-3.4-.51-1.35-.76-2.92-.76-4.7,0-1.37.22-2.66.67-3.88s1.09-2.28,1.92-3.19c.84-.9,1.86-1.62,3.05-2.15,1.19-.53,2.55-.8,4.06-.8ZM173.6,36.72c-1.32,0-2.35.38-3.1,1.15-.75.77-1.23,1.85-1.45,3.25h8.56c0-.58-.07-1.14-.23-1.67-.15-.53-.4-1-.73-1.41s-.75-.73-1.26-.97-1.1-.36-1.79-.36Z"></path><path class="cls-1" d="M186.05,53.6v-20.25h3.19c.33,0,.6.08.83.22.22.15.37.38.44.7l.35,1.49c.41-.41.83-.78,1.26-1.11.44-.33.91-.62,1.41-.86s1.04-.43,1.6-.57c.56-.13,1.18-.2,1.86-.2,1.1,0,2.07.2,2.92.57.84.38,1.55.91,2.12,1.59.57.68,1,1.49,1.29,2.44.3.94.44,1.97.44,3.09v12.89h-5.18v-12.89c0-1.15-.27-2.05-.8-2.69s-1.32-.96-2.38-.96c-.79,0-1.53.17-2.21.51-.69.34-1.33.81-1.95,1.43v14.6h-5.18Z"></path><path class="cls-1" d="M213.64,44.2v9.4h-5.36v-27.08h8.71c1.76,0,3.26.22,4.53.65,1.26.44,2.31,1.04,3.14,1.81.83.76,1.44,1.68,1.84,2.74.39,1.06.59,2.22.59,3.48,0,1.33-.2,2.55-.62,3.65-.42,1.1-1.04,2.05-1.88,2.84-.83.78-1.89,1.4-3.15,1.84-1.26.44-2.75.66-4.45.66h-3.34ZM213.64,40.04h3.34c1.63,0,2.83-.43,3.59-1.29.76-.86,1.14-2.05,1.14-3.54,0-1.4-.38-2.51-1.16-3.33-.78-.83-1.97-1.23-3.57-1.23h-3.34v9.4Z"></path><path class="cls-1" d="M230.7,53.6v-29.3h5.18v11.09c.78-.7,1.62-1.28,2.52-1.71.91-.44,1.98-.65,3.24-.65,1.1,0,2.07.2,2.92.57.84.38,1.55.91,2.12,1.59.57.68,1,1.49,1.29,2.44.3.94.44,1.97.44,3.09v12.89h-5.18v-12.89c0-1.15-.27-2.05-.8-2.69s-1.32-.96-2.39-.96c-.78,0-1.52.17-2.21.51-.69.34-1.34.81-1.95,1.43v14.6h-5.18Z"></path><path class="cls-1" d="M266.65,53.6c-.49,0-.86-.07-1.12-.22-.26-.14-.46-.43-.62-.86l-.44-1.34c-.52.44-1.02.84-1.49,1.18-.47.33-.96.62-1.47.86-.52.22-1.05.4-1.63.52s-1.22.17-1.93.17c-.87,0-1.66-.12-2.38-.36-.73-.24-1.35-.59-1.87-1.05-.52-.46-.92-1.04-1.21-1.72-.28-.69-.43-1.48-.43-2.38,0-.75.19-1.49.57-2.24.38-.75,1.03-1.42,1.94-2.02.92-.61,2.14-1.11,3.67-1.51,1.53-.41,3.44-.63,5.72-.69v-1.07c0-1.31-.27-2.26-.81-2.88-.54-.61-1.33-.91-2.34-.91-.76,0-1.39.09-1.89.26-.5.18-.94.37-1.31.58-.38.22-.74.41-1.07.59-.33.17-.69.26-1.1.26-.36,0-.66-.09-.91-.28-.25-.18-.46-.41-.6-.66l-.94-1.63c1.18-1.09,2.47-1.89,3.87-2.42,1.41-.54,2.95-.8,4.59-.8,1.18,0,2.24.2,3.18.58s1.73.93,2.39,1.63c.65.7,1.15,1.53,1.49,2.5s.51,2.02.51,3.19v12.74h-2.37ZM259.56,50.38c.93,0,1.73-.17,2.4-.5.67-.33,1.34-.85,2-1.54v-3.26c-1.34.06-2.46.17-3.35.34-.89.17-1.6.38-2.13.65-.53.26-.91.57-1.13.92-.22.36-.33.74-.33,1.15,0,.81.22,1.39.68,1.73s1.08.51,1.86.51Z"></path><path class="cls-1" d="M273.42,53.6v-20.25h3.04c.53,0,.9.09,1.11.29.21.19.35.52.42.99l.26,2.06c.61-1.15,1.33-2.07,2.14-2.73.82-.67,1.76-1,2.84-1,.89,0,1.61.21,2.18.63l-.39,3.87c-.03.25-.11.42-.25.52-.13.1-.32.15-.54.15-.2,0-.5-.03-.88-.09-.38-.06-.73-.09-1.06-.09-.48,0-.91.07-1.28.21-.38.13-.7.33-1,.59-.29.27-.55.59-.78.97s-.44.81-.63,1.31v12.56h-5.18Z"></path><path class="cls-1" d="M288.64,53.6v-20.25h3.18c.33,0,.6.08.83.22.22.15.37.38.44.7l.35,1.43c.37-.38.75-.74,1.13-1.07.39-.33.81-.6,1.26-.84s.93-.43,1.44-.57c.51-.13,1.07-.2,1.68-.2,1.29,0,2.36.35,3.19,1.03.83.69,1.46,1.6,1.86,2.72.33-.66.73-1.23,1.21-1.71.49-.47,1.02-.86,1.6-1.16.58-.3,1.2-.52,1.84-.66s1.3-.22,1.94-.22c1.15,0,2.16.17,3.05.52.89.35,1.63.85,2.24,1.51.6.66,1.06,1.47,1.37,2.42.32.95.47,2.03.47,3.24v12.89h-5.18v-12.89c0-2.43-1.09-3.65-3.26-3.65-.49,0-.95.08-1.37.23-.42.16-.79.39-1.11.7s-.57.68-.75,1.14-.28.98-.28,1.58v12.89h-5.18v-12.89c0-1.31-.27-2.24-.81-2.81-.54-.56-1.33-.84-2.37-.84-.7,0-1.34.15-1.94.46-.59.32-1.15.75-1.67,1.33v14.74h-5.18Z"></path><path class="cls-1" d="M336.08,53.6c-.49,0-.86-.07-1.12-.22-.26-.14-.46-.43-.62-.86l-.44-1.34c-.52.44-1.02.84-1.49,1.18-.47.33-.96.62-1.47.86-.52.22-1.05.4-1.63.52s-1.22.17-1.93.17c-.87,0-1.66-.12-2.38-.36-.73-.24-1.35-.59-1.87-1.05-.52-.46-.92-1.04-1.21-1.72-.28-.69-.43-1.48-.43-2.38,0-.75.19-1.49.57-2.24.38-.75,1.03-1.42,1.94-2.02.92-.61,2.14-1.11,3.67-1.51,1.53-.41,3.44-.63,5.72-.69v-1.07c0-1.31-.27-2.26-.81-2.88-.54-.61-1.33-.91-2.34-.91-.76,0-1.39.09-1.89.26-.5.18-.94.37-1.31.58-.38.22-.74.41-1.07.59-.33.17-.69.26-1.1.26-.36,0-.66-.09-.91-.28-.25-.18-.46-.41-.6-.66l-.94-1.63c1.18-1.09,2.47-1.89,3.87-2.42,1.41-.54,2.95-.8,4.59-.8,1.18,0,2.24.2,3.18.58s1.73.93,2.39,1.63c.65.7,1.15,1.53,1.49,2.5s.51,2.02.51,3.19v12.74h-2.37ZM328.98,50.38c.93,0,1.73-.17,2.4-.5.67-.33,1.34-.85,2-1.54v-3.26c-1.34.06-2.46.17-3.35.34-.89.17-1.6.38-2.13.65-.53.26-.91.57-1.13.92-.22.36-.33.74-.33,1.15,0,.81.22,1.39.68,1.73s1.08.51,1.86.51Z"></path></g><g><path class="cls-2" d="M50.69,78.2c6.63,0,13.25-2.53,18.31-7.58l1.62-1.62s.01-.02.02-.02l-1.64,1.64c-5.06,5.05-11.68,7.58-18.31,7.58Z"></path><path class="cls-2" d="M30.76,32.38l19.93-19.93-4.87-4.87C35.71-2.53,19.31-2.53,9.2,7.58l-1.62,1.62c-10.11,10.11-10.11,26.51,0,36.62l23.16,23.16c-10.09-10.11-10.08-26.49.02-36.59Z"></path><path class="cls-3" d="M30.74,68.98s.01.02.02.02l1.62,1.62c5.06,5.06,11.68,7.58,18.31,7.58-6.63,0-13.25-2.53-18.31-7.58l-1.64-1.64Z"></path><path class="cls-4" d="M93.8,9.2l-1.62-1.62c-10.11-10.11-26.51-10.11-36.62,0l-4.87,4.87,19.93,19.93c10.1,10.1,10.11,26.48.02,36.59l23.16-23.16c10.11-10.11,10.11-26.51,0-36.62Z"></path><path class="cls-2" d="M70.62,32.38l-19.93-19.93-19.93,19.93c-10.1,10.1-10.11,26.48-.02,36.59l1.64,1.64c5.05,5.05,11.68,7.58,18.31,7.58,6.63,0,13.25-2.53,18.31-7.58l1.64-1.64c10.09-10.11,10.08-26.49-.02-36.59Z"></path><path class="cls-5" d="M70.62,32.38l-19.93-19.93-19.93,19.93c-10.1,10.1-10.11,26.48-.02,36.59l1.64,1.64c5.05,5.05,11.68,7.58,18.31,7.58,6.63,0,13.25-2.53,18.31-7.58l1.64-1.64c10.09-10.11,10.08-26.49-.02-36.59Z"></path></g></g></g></svg>