<svg xmlns="http://www.w3.org/2000/svg" id="Camada_2" data-name="Camada 2" viewBox="0 0 322.21 75.61"><defs><style> .cls-1 { fill: #1396d4; } .cls-1, .cls-2, .cls-3, .cls-4, .cls-5 { stroke-width: 0px; } .cls-2 { opacity: .51; } .cls-2, .cls-5 { fill: #2eb196; } .cls-3 { fill: #008f9d; } .cls-4 { fill: #fff; } </style></defs><g id="Camada_1-2" data-name="Camada 1"><g><g><path class="cls-4" d="M136.08,40.22c0,1.92-.3,3.7-.9,5.33-.6,1.64-1.46,3.05-2.57,4.25-1.11,1.19-2.45,2.13-4.01,2.8-1.56.67-3.3,1-5.2,1s-3.64-.33-5.2-1c-1.56-.67-2.9-1.61-4.02-2.8-1.12-1.2-1.98-2.61-2.59-4.25-.62-1.63-.92-3.41-.92-5.33s.3-3.68.92-5.31c.61-1.64,1.47-3.05,2.59-4.24,1.12-1.19,2.46-2.13,4.02-2.81,1.56-.67,3.3-1.01,5.2-1.01s3.64.34,5.2,1.01c1.56.68,2.9,1.61,4.01,2.81,1.12,1.19,1.97,2.61,2.57,4.24s.9,3.39.9,5.3ZM130.8,40.22c0-1.39-.17-2.64-.51-3.75-.34-1.1-.83-2.04-1.47-2.82-.64-.77-1.42-1.37-2.33-1.78s-1.95-.62-3.11-.62-2.2.21-3.11.62-1.7,1.01-2.34,1.78c-.64.78-1.12,1.72-1.47,2.82-.34,1.11-.51,2.36-.51,3.75s.17,2.67.51,3.77c.34,1.12.83,2.06,1.47,2.82.64.77,1.42,1.36,2.34,1.77s1.96.61,3.11.61,2.2-.2,3.11-.61,1.69-1,2.33-1.77c.63-.76,1.12-1.7,1.47-2.82.34-1.11.51-2.36.51-3.77Z"></path><path class="cls-4" d="M151.82,35.81c0,.36-.06.72-.18,1.05-.11.32-.26.6-.43.83l-7.59,11.83h8.02v3.82h-13.73v-2.07c0-.22.05-.5.15-.83s.27-.62.49-.89l7.57-11.96h-7.74v-3.83h13.45v2.06Z"></path><path class="cls-4" d="M162.74,33.44c1.23,0,2.37.2,3.41.6s1.93.98,2.68,1.73c.75.76,1.33,1.69,1.75,2.79s.63,2.36.63,3.79c0,.38-.02.69-.06.93-.04.25-.11.43-.19.58s-.2.25-.36.31c-.15.06-.34.08-.56.08h-11.71c.08.95.25,1.77.51,2.47.27.69.61,1.26,1.05,1.71s.95.78,1.54,1c.6.22,1.25.32,1.97.32s1.35-.08,1.89-.27c.53-.18,1-.36,1.4-.57s.76-.39,1.07-.58c.32-.18.62-.27.93-.27.37,0,.67.15.91.46l1.44,1.85c-.54.63-1.14,1.16-1.8,1.57s-1.33.74-2.04.98c-.7.25-1.42.42-2.14.53s-1.42.15-2.09.15c-1.35,0-2.61-.22-3.78-.67-1.17-.45-2.19-1.12-3.06-2.01-.86-.88-1.54-1.99-2.04-3.29-.49-1.3-.74-2.82-.74-4.55,0-1.33.22-2.57.65-3.75s1.05-2.2,1.86-3.08c.81-.87,1.8-1.56,2.95-2.08,1.15-.51,2.46-.77,3.92-.77ZM162.84,37.01c-1.28,0-2.27.37-3,1.12s-1.19,1.79-1.4,3.14h8.28c0-.56-.07-1.1-.22-1.61-.15-.51-.39-.97-.71-1.36s-.73-.71-1.21-.94-1.07-.34-1.73-.34Z"></path><path class="cls-4" d="M174.87,53.33v-19.58h3.08c.32,0,.58.08.8.22.22.15.36.37.42.67l.34,1.44c.39-.39.8-.75,1.22-1.07s.88-.6,1.36-.83,1-.41,1.55-.55c.54-.13,1.14-.2,1.8-.2,1.07,0,2.01.19,2.82.55.81.37,1.49.88,2.05,1.54.55.66.97,1.44,1.25,2.36.29.91.43,1.91.43,2.99v12.46h-5.01v-12.46c0-1.12-.26-1.99-.77-2.6s-1.28-.93-2.3-.93c-.76,0-1.48.16-2.14.49-.67.33-1.29.79-1.89,1.38v14.11h-5.01Z"></path><path class="cls-4" d="M201.55,44.24v9.09h-5.18v-26.18h8.42c1.7,0,3.16.21,4.38.63,1.22.42,2.24,1,3.04,1.75.8.74,1.39,1.62,1.77,2.65.38,1.02.57,2.15.57,3.37,0,1.29-.2,2.46-.6,3.53-.41,1.07-1.01,1.98-1.82,2.74-.81.76-1.82,1.35-3.04,1.78s-2.66.64-4.3.64h-3.23ZM201.55,40.22h3.23c1.58,0,2.74-.41,3.47-1.25s1.1-1.98,1.1-3.42c0-1.35-.37-2.43-1.12-3.22-.75-.8-1.9-1.19-3.45-1.19h-3.23v9.08Z"></path><path class="cls-4" d="M218.05,53.33v-28.32h5.01v10.72c.75-.68,1.56-1.23,2.43-1.66.88-.42,1.91-.63,3.13-.63,1.06,0,2,.19,2.82.55.81.37,1.49.88,2.05,1.54.55.66.97,1.44,1.25,2.36.29.91.43,1.91.43,2.99v12.46h-5.01v-12.46c0-1.12-.26-1.99-.77-2.6s-1.28-.93-2.31-.93c-.76,0-1.47.16-2.13.49-.67.33-1.3.79-1.89,1.38v14.11h-5.01Z"></path><path class="cls-4" d="M252.8,53.33c-.47,0-.83-.07-1.08-.21-.25-.13-.45-.41-.6-.83l-.43-1.3c-.51.43-.98.81-1.44,1.14-.46.32-.93.6-1.42.83-.5.22-1.02.39-1.58.5s-1.18.17-1.87.17c-.84,0-1.61-.11-2.3-.34-.7-.23-1.3-.57-1.81-1.02-.51-.44-.89-1-1.17-1.66-.27-.67-.41-1.43-.41-2.3,0-.72.18-1.44.55-2.17.36-.72,1-1.37,1.88-1.96.89-.59,2.07-1.07,3.55-1.46,1.48-.39,3.32-.61,5.53-.67v-1.04c0-1.26-.26-2.19-.79-2.78-.53-.59-1.28-.88-2.27-.88-.74,0-1.35.08-1.82.25-.48.18-.9.36-1.27.56-.37.21-.72.39-1.03.57-.32.17-.67.25-1.06.25-.34,0-.64-.09-.88-.27-.25-.18-.44-.39-.58-.64l-.91-1.58c1.14-1.05,2.38-1.83,3.75-2.34,1.37-.52,2.85-.77,4.44-.77,1.14,0,2.17.19,3.07.56s1.68.9,2.31,1.58c.63.67,1.11,1.48,1.44,2.41s.49,1.96.49,3.08v12.32h-2.29ZM245.94,50.22c.9,0,1.67-.16,2.32-.48.65-.32,1.3-.82,1.94-1.49v-3.16c-1.3.06-2.38.16-3.24.33-.86.16-1.55.37-2.06.63-.51.25-.88.55-1.09.89-.21.34-.32.72-.32,1.11,0,.79.22,1.35.66,1.68s1.05.49,1.8.49Z"></path><path class="cls-4" d="M259.35,53.33v-19.58h2.94c.51,0,.87.09,1.07.28.2.18.34.51.41.96l.25,1.99c.59-1.12,1.28-2,2.07-2.64.79-.65,1.7-.97,2.74-.97.86,0,1.56.2,2.11.61l-.38,3.75c-.03.24-.11.41-.24.51-.13.1-.31.15-.53.15-.2,0-.48-.03-.85-.09-.37-.06-.71-.09-1.02-.09-.46,0-.88.07-1.23.2-.36.13-.68.32-.97.58-.28.26-.53.58-.76.94s-.43.79-.61,1.26v12.14h-5.01Z"></path><path class="cls-4" d="M274.06,53.33v-19.58h3.07c.32,0,.58.08.8.22.22.15.36.37.42.67l.34,1.38c.36-.37.72-.72,1.09-1.03.38-.32.78-.58,1.21-.81s.9-.41,1.39-.55c.49-.13,1.04-.2,1.63-.2,1.25,0,2.28.34,3.09,1,.81.67,1.41,1.54,1.8,2.63.32-.64.71-1.19,1.17-1.66.47-.46.98-.83,1.55-1.12.56-.29,1.16-.5,1.78-.64s1.26-.21,1.88-.21c1.11,0,2.09.17,2.95.51.86.34,1.58.82,2.17,1.46.58.64,1.02,1.42,1.33,2.34.31.92.46,1.96.46,3.14v12.46h-5.01v-12.46c0-2.35-1.05-3.53-3.15-3.53-.48,0-.92.08-1.33.22-.41.15-.76.38-1.07.67s-.55.66-.73,1.1-.27.95-.27,1.53v12.46h-5.01v-12.46c0-1.26-.26-2.17-.79-2.71-.53-.54-1.29-.81-2.29-.81-.67,0-1.3.15-1.87.45-.58.31-1.12.73-1.61,1.28v14.25h-5.01Z"></path><path class="cls-4" d="M319.92,53.33c-.47,0-.83-.07-1.08-.21-.25-.13-.45-.41-.6-.83l-.43-1.3c-.51.43-.98.81-1.44,1.14-.46.32-.93.6-1.42.83-.5.22-1.02.39-1.58.5s-1.18.17-1.87.17c-.84,0-1.61-.11-2.3-.34-.7-.23-1.3-.57-1.81-1.02-.51-.44-.89-1-1.17-1.66-.27-.67-.41-1.43-.41-2.3,0-.72.18-1.44.55-2.17.36-.72,1-1.37,1.88-1.96.89-.59,2.07-1.07,3.55-1.46,1.48-.39,3.32-.61,5.53-.67v-1.04c0-1.26-.26-2.19-.79-2.78-.53-.59-1.28-.88-2.27-.88-.74,0-1.35.08-1.82.25-.48.18-.9.36-1.27.56-.37.21-.72.39-1.03.57-.32.17-.67.25-1.06.25-.34,0-.64-.09-.88-.27-.25-.18-.44-.39-.58-.64l-.91-1.58c1.14-1.05,2.38-1.83,3.75-2.34,1.37-.52,2.85-.77,4.44-.77,1.14,0,2.17.19,3.07.56s1.68.9,2.31,1.58c.63.67,1.11,1.48,1.44,2.41s.49,1.96.49,3.08v12.32h-2.29ZM313.06,50.22c.9,0,1.67-.16,2.32-.48.65-.32,1.3-.82,1.94-1.49v-3.16c-1.3.06-2.38.16-3.24.33-.86.16-1.55.37-2.06.63-.51.25-.88.55-1.09.89-.21.34-.32.72-.32,1.11,0,.79.22,1.35.66,1.68s1.05.49,1.8.49Z"></path></g><g><path class="cls-1" d="M49.01,75.61c6.41,0,12.81-2.44,17.7-7.33l1.57-1.57s.01-.02.02-.02l-1.59,1.59c-4.89,4.89-11.29,7.33-17.7,7.33Z"></path><path class="cls-1" d="M29.74,31.31l19.27-19.27-4.71-4.71C34.52-2.44,18.67-2.44,8.9,7.33l-1.57,1.57c-9.78,9.78-9.78,25.63,0,35.4l22.39,22.39c-9.75-9.78-9.75-25.61.02-35.38Z"></path><path class="cls-2" d="M29.72,66.69s.01.02.02.02l1.57,1.57c4.89,4.89,11.3,7.33,17.7,7.33-6.41,0-12.81-2.44-17.7-7.33l-1.59-1.59Z"></path><path class="cls-3" d="M90.69,8.9l-1.57-1.57c-9.78-9.78-25.63-9.78-35.4,0l-4.71,4.71,19.27,19.27c9.77,9.77,9.77,25.6.02,35.38l22.39-22.39c9.78-9.78,9.78-25.63,0-35.4Z"></path><path class="cls-1" d="M68.28,31.31l-19.27-19.27-19.27,19.27c-9.77,9.77-9.77,25.6-.02,35.38l1.59,1.59c4.89,4.89,11.29,7.33,17.7,7.33,6.41,0,12.81-2.44,17.7-7.33l1.59-1.59c9.75-9.78,9.75-25.61-.02-35.38Z"></path><path class="cls-5" d="M68.28,31.31l-19.27-19.27-19.27,19.27c-9.77,9.77-9.77,25.6-.02,35.38l1.59,1.59c4.89,4.89,11.29,7.33,17.7,7.33,6.41,0,12.81-2.44,17.7-7.33l1.59-1.59c9.75-9.78,9.75-25.61-.02-35.38Z"></path></g></g></g></svg>